<?xml version="1.0" standalone="no"?><!DOCTYPE svg PUBLIC "-//W3C//DTD SVG 1.1//EN"
        "http://www.w3.org/Graphics/SVG/1.1/DTD/svg11.dtd">
<svg t="1677293918707" class="icon" viewBox="0 0 1024 1024" version="1.1" xmlns="http://www.w3.org/2000/svg" p-id="5895"
     width="200" height="200">
    <path d="M469.333333 789.333333a21.333333 21.333333 0 0 1-21.333333 21.333334H243.5l-121.746667 121.753333A21.333333 21.333333 0 0 1 85.333333 917.333333v-106.666666A85.426667 85.426667 0 0 1 0 725.333333V213.333333a85.426667 85.426667 0 0 1 85.333333-85.333333h768a85.426667 85.426667 0 0 1 85.333334 85.333333v192a21.333333 21.333333 0 0 1-42.666667 0V213.333333a42.713333 42.713333 0 0 0-42.666667-42.666666H85.333333a42.713333 42.713333 0 0 0-42.666666 42.666666v512a42.713333 42.713333 0 0 0 42.666666 42.666667h21.333334a21.333333 21.333333 0 0 1 21.333333 21.333333v76.5l91.58-91.586666A21.333333 21.333333 0 0 1 234.666667 768h213.333333a21.333333 21.333333 0 0 1 21.333333 21.333333z m554.666667-234.666666v213.333333a85.426667 85.426667 0 0 1-85.333333 85.333333v64a21.333333 21.333333 0 0 1-36.42 15.086667L823.166667 853.333333H597.333333a85.426667 85.426667 0 0 1-85.333333-85.333333V554.666667a85.426667 85.426667 0 0 1 85.333333-85.333334h341.333334a85.426667 85.426667 0 0 1 85.333333 85.333334z m-42.666667 0a42.713333 42.713333 0 0 0-42.666666-42.666667H597.333333a42.713333 42.713333 0 0 0-42.666666 42.666667v213.333333a42.713333 42.713333 0 0 0 42.666666 42.666667h234.666667a21.333333 21.333333 0 0 1 15.086667 6.246666l48.913333 48.92V832a21.333333 21.333333 0 0 1 21.333333-21.333333h21.333334a42.713333 42.713333 0 0 0 42.666666-42.666667zM298.666667 469.333333a42.666667 42.666667 0 1 1-42.666667-42.666666 42.666667 42.666667 0 0 1 42.666667 42.666666z m170.666666-42.666666a42.666667 42.666667 0 1 0 42.666667 42.666666 42.666667 42.666667 0 0 0-42.666667-42.666666z"
          fill="#ffffff" p-id="5896"></path>
</svg>